# Blender v2.92.0 OBJ File: ''
# www.blender.org
mtllib fan.mtl
o Cylinder
v 0.831469 0.555571 0.100000
v 0.831469 0.555571 -0.100000
v 0.707106 0.707107 -0.100000
v 0.707106 0.707107 0.100000
v 0.555570 0.831470 -0.100000
v 0.555570 0.831470 0.100000
v 0.382683 0.923880 -0.100000
v 0.382683 0.923880 0.100000
v 0.195089 0.980785 -0.100000
v 0.195089 0.980785 0.100000
v -0.000001 1.000000 -0.100000
v -0.000001 1.000000 0.100000
v -0.195091 0.980785 -0.100000
v -0.195091 0.980785 0.100000
v -0.382684 0.923879 -0.100000
v -0.382684 0.923879 0.100000
v -0.555571 0.831469 -0.100000
v -0.555571 0.831469 0.100000
v -0.707108 0.707106 -0.100000
v -0.707108 0.707106 -0.022634
v -0.707108 0.707106 0.100000
v -0.831470 0.555569 0.100000
v -0.000987 0.025353 0.100000
v -0.000987 -0.011635 -0.100000
v -0.831470 0.555569 -0.100000
vt 0.406250 0.500000
vt 0.406250 1.000000
vt 0.375000 1.000000
vt 0.375000 0.500000
vt 0.343750 1.000000
vt 0.343750 0.500000
vt 0.312500 1.000000
vt 0.312500 0.500000
vt 0.281250 1.000000
vt 0.281250 0.500000
vt 0.250000 1.000000
vt 0.250000 0.500000
vt 0.218750 1.000000
vt 0.218750 0.500000
vt 0.187500 1.000000
vt 0.187500 0.500000
vt 0.156250 1.000000
vt 0.156250 0.500000
vt 0.125000 1.000000
vt 0.125000 0.806586
vt 0.125000 0.500000
vt 0.093750 0.500000
vt 0.616663 0.449553
vt 0.743915 0.250237
vt 0.616663 0.050447
vt 0.580294 0.080294
vt 0.550447 0.116663
vt 0.528269 0.158156
vt 0.514611 0.203179
vt 0.510000 0.250000
vt 0.514612 0.296822
vt 0.528269 0.341844
vt 0.550447 0.383337
vt 0.580295 0.419706
vt 0.116663 0.050447
vt 0.252793 0.250237
vt 0.116663 0.449553
vt 0.080295 0.419706
vt 0.050447 0.383337
vt 0.028269 0.341844
vt 0.014612 0.296822
vt 0.010000 0.250000
vt 0.014611 0.203179
vt 0.028269 0.158156
vt 0.050447 0.116663
vt 0.080294 0.080294
vt 0.093750 1.000000
vn 0.7730 0.6344 0.0000
vn 0.6344 0.7730 0.0000
vn 0.4714 0.8819 0.0000
vn 0.2903 0.9569 0.0000
vn 0.0980 0.9952 0.0000
vn -0.0980 0.9952 0.0000
vn -0.2903 0.9569 0.0000
vn -0.4714 0.8819 0.0000
vn -0.6344 0.7730 0.0000
vn -0.7730 0.6344 0.0000
vn 0.0000 0.0000 1.0000
vn 0.0000 0.0000 -1.0000
usemtl None
s 1
f 1/1/1 2/2/1 3/3/1 4/4/1
f 4/4/2 3/3/2 5/5/2 6/6/2
f 6/6/3 5/5/3 7/7/3 8/8/3
f 8/8/4 7/7/4 9/9/4 10/10/4
f 10/10/5 9/9/5 11/11/5 12/12/5
f 12/12/6 11/11/6 13/13/6 14/14/6
f 14/14/7 13/13/7 15/15/7 16/16/7
f 16/16/8 15/15/8 17/17/8 18/18/8
f 18/18/9 17/17/9 19/19/9 20/20/9 21/21/9
f 21/21/10 20/20/10 22/22/10
f 22/23/11 23/24/11 1/25/11 4/26/11 6/27/11 8/28/11 10/29/11 12/30/11 14/31/11 16/32/11 18/33/11 21/34/11
f 2/35/12 24/36/12 25/37/12 19/38/12 17/39/12 15/40/12 13/41/12 11/42/12 9/43/12 7/44/12 5/45/12 3/46/12
f 22/22/10 20/20/10 19/19/10 25/47/10
