# Blender v2.92.0 OBJ File: 'needle.blend'
# www.blender.org
mtllib needle.mtl
o Cube
v 1.296245 -0.893247 0.951037
v -0.117969 0.520926 0.940371
v 4.124672 1.935101 0.929919
v 2.710458 3.349275 0.919254
v 1.296321 -0.908255 -1.048907
v -0.117893 0.505918 -1.059573
v 4.124748 1.920093 -1.070024
v 2.710534 3.334267 -1.080690
vt 0.625000 0.500000
vt 0.875000 0.500000
vt 0.875000 0.750000
vt 0.625000 0.750000
vt 0.375000 0.750000
vt 0.625000 1.000000
vt 0.375000 1.000000
vt 0.375000 0.000000
vt 0.625000 0.000000
vt 0.625000 0.250000
vt 0.375000 0.250000
vt 0.125000 0.500000
vt 0.375000 0.500000
vt 0.125000 0.750000
vn 0.7071 -0.7071 0.0053
vn 0.7071 0.7071 -0.0053
vn 0.0000 -0.0075 -1.0000
vn -0.7071 0.7071 -0.0053
vn -0.0000 0.0075 1.0000
vn -0.7071 -0.7071 0.0053
usemtl Material
s off
f 1/1/1 5/2/1 7/3/1 3/4/1
f 4/5/2 3/4/2 7/6/2 8/7/2
f 8/8/3 7/9/3 5/10/3 6/11/3
f 6/12/4 2/13/4 4/5/4 8/14/4
f 2/13/5 1/1/5 3/4/5 4/5/5
f 6/11/6 5/10/6 1/1/6 2/13/6
o Cube.001
v -1.410862 -0.771931 0.950024
v 0.003352 0.642243 0.939465
v 0.003352 -2.186104 0.960689
v 1.417565 -0.771930 0.950131
v -1.410786 -0.786939 -1.049920
v 0.003428 0.627235 -1.060479
v 0.003428 -2.201112 -1.039254
v 1.417641 -0.786938 -1.049813
vt 0.625000 0.500000
vt 0.875000 0.500000
vt 0.875000 0.750000
vt 0.625000 0.750000
vt 0.375000 0.750000
vt 0.625000 1.000000
vt 0.375000 1.000000
vt 0.375000 0.000000
vt 0.625000 0.000000
vt 0.625000 0.250000
vt 0.375000 0.250000
vt 0.125000 0.500000
vt 0.375000 0.500000
vt 0.125000 0.750000
vn -0.7071 -0.7071 0.0053
vn 0.7071 -0.7071 0.0053
vn 0.0000 -0.0075 -1.0000
vn 0.7071 0.7071 -0.0053
vn -0.0000 0.0075 1.0000
vn -0.7071 0.7071 -0.0053
usemtl Material
s off
f 9/15/7 13/16/7 15/17/7 11/18/7
f 12/19/8 11/18/8 15/20/8 16/21/8
f 16/22/9 15/23/9 13/24/9 14/25/9
f 14/26/10 10/27/10 12/19/10 16/28/10
f 10/27/11 9/15/11 11/18/11 12/19/11
f 14/25/12 13/24/12 9/15/12 10/27/12
o Cube.002
v -4.117969 1.935099 0.929608
v -2.703755 3.349273 0.919049
v -1.289541 -0.893248 0.950939
v 0.124672 0.520926 0.940381
v -4.117893 1.920091 -1.070336
v -2.703679 3.334265 -1.080895
v -1.289466 -0.908256 -1.049004
v 0.124748 0.505919 -1.059563
vt 0.625000 0.500000
vt 0.875000 0.500000
vt 0.875000 0.750000
vt 0.625000 0.750000
vt 0.375000 0.750000
vt 0.625000 1.000000
vt 0.375000 1.000000
vt 0.375000 0.000000
vt 0.625000 0.000000
vt 0.625000 0.250000
vt 0.375000 0.250000
vt 0.125000 0.500000
vt 0.375000 0.500000
vt 0.125000 0.750000
vn -0.7071 -0.7071 0.0053
vn 0.7071 -0.7071 0.0053
vn 0.0000 -0.0075 -1.0000
vn 0.7071 0.7071 -0.0053
vn -0.0000 0.0075 1.0000
vn -0.7071 0.7071 -0.0053
usemtl Material
s off
f 17/29/13 21/30/13 23/31/13 19/32/13
f 20/33/14 19/32/14 23/34/14 24/35/14
f 24/36/15 23/37/15 21/38/15 22/39/15
f 22/40/16 18/41/16 20/33/16 24/42/16
f 18/41/17 17/29/17 19/32/17 20/33/17
f 22/39/18 21/38/18 17/29/18 18/41/18
o Cone
v -0.996610 -0.135211 -0.054765
v -0.977388 -0.136676 -0.249849
v -0.920475 -0.138083 -0.437434
v -0.828059 -0.139381 -0.610313
v -0.703690 -0.140518 -0.761840
v -0.552149 -0.141451 -0.886194
v -0.379259 -0.142145 -0.978595
v -0.191664 -0.142572 -1.035492
v 0.003428 -0.142716 -1.054698
v 0.198517 -0.142571 -1.035477
v 0.386108 -0.142144 -0.978566
v 0.558991 -0.141451 -0.886152
v 0.710523 -0.140517 -0.761787
v 0.834880 -0.139380 -0.610250
v 0.927284 -0.138083 -0.437364
v 0.984182 -0.136675 -0.249774
v 1.003390 -0.135211 -0.054688
v 0.984168 -0.133747 0.140396
v 0.927255 -0.132339 0.327981
v 0.834838 -0.131042 0.500860
v 0.710469 -0.129905 0.652387
v 0.558928 -0.128971 0.776741
v 0.386037 -0.128278 0.869142
v 0.198442 -0.127851 0.926039
v 0.003351 -0.127707 0.945245
v -0.191739 -0.127851 0.926023
v -0.379330 -0.128278 0.869112
v -0.552213 -0.128972 0.776698
v -0.703745 -0.129905 0.652333
v -0.828102 -0.131042 0.500795
v -0.920505 -0.132340 0.327910
v -0.977403 -0.133747 0.140320
v 0.003390 5.864620 -0.099754
vt 0.250000 0.490000
vt 0.250000 0.250000
vt 0.296822 0.485388
vt 0.341844 0.471731
vt 0.383337 0.449553
vt 0.419706 0.419706
vt 0.449553 0.383337
vt 0.471731 0.341844
vt 0.485388 0.296822
vt 0.490000 0.250000
vt 0.485388 0.203178
vt 0.471731 0.158156
vt 0.449553 0.116663
vt 0.419706 0.080294
vt 0.383337 0.050447
vt 0.341844 0.028269
vt 0.296822 0.014612
vt 0.250000 0.010000
vt 0.203178 0.014612
vt 0.158156 0.028269
vt 0.116663 0.050447
vt 0.080294 0.080294
vt 0.050447 0.116663
vt 0.028269 0.158156
vt 0.014611 0.203179
vt 0.010000 0.250000
vt 0.014612 0.296822
vt 0.028269 0.341844
vt 0.050447 0.383337
vt 0.080295 0.419706
vt 0.116663 0.449553
vt 0.158156 0.471731
vt 0.750000 0.490000
vt 0.796822 0.485388
vt 0.841844 0.471731
vt 0.883337 0.449553
vt 0.919706 0.419706
vt 0.949553 0.383337
vt 0.971731 0.341844
vt 0.985388 0.296822
vt 0.990000 0.250000
vt 0.985388 0.203178
vt 0.971731 0.158156
vt 0.949553 0.116663
vt 0.919706 0.080294
vt 0.883337 0.050447
vt 0.841844 0.028269
vt 0.796822 0.014612
vt 0.750000 0.010000
vt 0.703178 0.014612
vt 0.658156 0.028269
vt 0.616663 0.050447
vt 0.580294 0.080294
vt 0.550447 0.116663
vt 0.528269 0.158156
vt 0.514611 0.203179
vt 0.510000 0.250000
vt 0.514612 0.296822
vt 0.528269 0.341844
vt 0.550447 0.383337
vt 0.580295 0.419706
vt 0.616663 0.449553
vt 0.658156 0.471731
vt 0.703179 0.485389
vt 0.203179 0.485389
vn -0.9818 0.1629 -0.0980
vn -0.9440 0.1615 -0.2876
vn -0.8700 0.1601 -0.4663
vn -0.7626 0.1589 -0.6271
vn -0.6258 0.1579 -0.7638
vn -0.4650 0.1571 -0.8713
vn -0.2863 0.1565 -0.9453
vn -0.0967 0.1563 -0.9830
vn 0.0967 0.1563 -0.9830
vn 0.2864 0.1565 -0.9452
vn 0.4651 0.1571 -0.8712
vn 0.6259 0.1579 -0.7638
vn 0.7626 0.1589 -0.6270
vn 0.8701 0.1601 -0.4662
vn 0.9441 0.1615 -0.2876
vn 0.9818 0.1629 -0.0979
vn 0.9818 0.1643 0.0955
vn 0.9440 0.1658 0.2852
vn 0.8700 0.1671 0.4638
vn 0.7626 0.1683 0.6246
vn 0.6258 0.1693 0.7614
vn 0.4650 0.1702 0.8688
vn 0.2863 0.1707 0.9428
vn 0.0967 0.1710 0.9805
vn -0.0967 0.1710 0.9805
vn -0.2864 0.1707 0.9428
vn -0.4651 0.1702 0.8688
vn -0.6259 0.1693 0.7613
vn -0.7626 0.1683 0.6246
vn -0.8701 0.1671 0.4638
vn 0.0000 -1.0000 0.0075
vn -0.9441 0.1658 0.2851
vn -0.9818 0.1643 0.0954
usemtl Material
s off
f 25/43/19 57/44/19 26/45/19
f 26/45/20 57/44/20 27/46/20
f 27/46/21 57/44/21 28/47/21
f 28/47/22 57/44/22 29/48/22
f 29/48/23 57/44/23 30/49/23
f 30/49/24 57/44/24 31/50/24
f 31/50/25 57/44/25 32/51/25
f 32/51/26 57/44/26 33/52/26
f 33/52/27 57/44/27 34/53/27
f 34/53/28 57/44/28 35/54/28
f 35/54/29 57/44/29 36/55/29
f 36/55/30 57/44/30 37/56/30
f 37/56/31 57/44/31 38/57/31
f 38/57/32 57/44/32 39/58/32
f 39/58/33 57/44/33 40/59/33
f 40/59/34 57/44/34 41/60/34
f 41/60/35 57/44/35 42/61/35
f 42/61/36 57/44/36 43/62/36
f 43/62/37 57/44/37 44/63/37
f 44/63/38 57/44/38 45/64/38
f 45/64/39 57/44/39 46/65/39
f 46/65/40 57/44/40 47/66/40
f 47/66/41 57/44/41 48/67/41
f 48/67/42 57/44/42 49/68/42
f 49/68/43 57/44/43 50/69/43
f 50/69/44 57/44/44 51/70/44
f 51/70/45 57/44/45 52/71/45
f 52/71/46 57/44/46 53/72/46
f 53/72/47 57/44/47 54/73/47
f 54/73/48 57/44/48 55/74/48
f 25/75/49 26/76/49 27/77/49 28/78/49 29/79/49 30/80/49 31/81/49 32/82/49 33/83/49 34/84/49 35/85/49 36/86/49 37/87/49 38/88/49 39/89/49 40/90/49 41/91/49 42/92/49 43/93/49 44/94/49 45/95/49 46/96/49 47/97/49 48/98/49 49/99/49 50/100/49 51/101/49 52/102/49 53/103/49 54/104/49 55/105/49 56/106/49
f 55/74/50 57/44/50 56/107/50
f 56/107/51 57/44/51 25/43/51
